<svg width="24" height="24" viewBox="0 0 24 24" fill="none" xmlns="http://www.w3.org/2000/svg">
<path d="M15.118 7.32289L7.32289 15.118C6.89237 15.5485 6.89237 16.2465 7.32289 16.6771C7.7534 17.1076 8.4514 17.1076 8.88191 16.6771L16.6771 8.88191C17.1076 8.4514 17.1076 7.7534 16.6771 7.32289C16.2465 6.89237 15.5485 6.89237 15.118 7.32289Z" fill="white"/>
<path d="M16.6772 15.1181L8.88202 7.32294C8.4515 6.89243 7.7535 6.89243 7.32299 7.32294C6.89247 7.75346 6.89247 8.45146 7.32299 8.88197L15.1181 16.6771C15.5486 17.1076 16.2466 17.1076 16.6772 16.6771C17.1077 16.2466 17.1077 15.5486 16.6772 15.1181Z" fill="white"/>
</svg>
